<svg width="125" height="74" viewBox="0 0 125 74" fill="none" xmlns="http://www.w3.org/2000/svg">
<path d="M40.2467 56V23.33H34.0817V19.55H51.3167V23.33H45.3317V56H40.2467ZM64.2356 56.405C61.5956 56.405 59.5706 55.88 58.1606 54.83C56.7506 53.78 55.7906 52.31 55.2806 50.42C54.7706 48.5 54.5156 46.265 54.5156 43.715V19.55H59.3756V43.94C59.3756 45.5 59.4806 46.925 59.6906 48.215C59.9006 49.505 60.3506 50.525 61.0406 51.275C61.7606 52.025 62.8256 52.4 64.2356 52.4C65.6756 52.4 66.7406 52.025 67.4306 51.275C68.1206 50.525 68.5706 49.505 68.7806 48.215C68.9906 46.925 69.0956 45.5 69.0956 43.94V19.55H73.9106V43.715C73.9106 46.265 73.6556 48.5 73.1456 50.42C72.6356 52.31 71.6756 53.78 70.2656 54.83C68.8856 55.88 66.8756 56.405 64.2356 56.405ZM79.2642 56V19.55H87.1842C89.8842 19.55 92.0142 19.97 93.5742 20.81C95.1642 21.62 96.2892 22.85 96.9492 24.5C97.6392 26.15 97.9842 28.205 97.9842 30.665V44.075C97.9842 46.655 97.6392 48.83 96.9492 50.6C96.2892 52.37 95.1942 53.72 93.6642 54.65C92.1642 55.55 90.1392 56 87.5892 56H79.2642ZM84.3492 52.355H87.2292C89.0892 52.355 90.4092 51.995 91.1892 51.275C91.9692 50.555 92.4342 49.505 92.5842 48.125C92.7642 46.745 92.8542 45.08 92.8542 43.13V31.295C92.8542 29.405 92.7342 27.875 92.4942 26.705C92.2542 25.535 91.7292 24.68 90.9192 24.14C90.1092 23.6 88.8342 23.33 87.0942 23.33H84.3492V52.355ZM112.4 56.405C109.76 56.405 107.735 55.88 106.325 54.83C104.915 53.78 103.955 52.31 103.445 50.42C102.935 48.5 102.68 46.265 102.68 43.715V19.55H107.54V43.94C107.54 45.5 107.645 46.925 107.855 48.215C108.065 49.505 108.515 50.525 109.205 51.275C109.925 52.025 110.99 52.4 112.4 52.4C113.84 52.4 114.905 52.025 115.595 51.275C116.285 50.525 116.735 49.505 116.945 48.215C117.155 46.925 117.26 45.5 117.26 43.94V19.55H122.075V43.715C122.075 46.265 121.82 48.5 121.31 50.42C120.8 52.31 119.84 53.78 118.43 54.83C117.05 55.88 115.04 56.405 112.4 56.405Z" fill="white"/>
<rect x="2" y="26" width="28" height="28" stroke="white" stroke-width="4"/>
<path d="M3.5 27.5C21 64.5 11 62.5 36 20.5" stroke="white" stroke-width="4"/>
</svg>
